<?xml version="1.0" standalone="no"?>
<!DOCTYPE svg PUBLIC "-//W3C//DTD SVG 20010904//EN"
 "http://www.w3.org/TR/2001/REC-SVG-20010904/DTD/svg10.dtd">
<svg version="1.0" xmlns="http://www.w3.org/2000/svg"
 width="211.000000pt" height="239.000000pt" viewBox="0 0 211.000000 239.000000"
 preserveAspectRatio="xMidYMid meet">
<metadata>
Created by potrace 1.13, written by Peter Selinger 2001-2015
</metadata>
<g transform="translate(0.000000,239.000000) scale(0.100000,-0.100000)"
fill="#000000" stroke="none">
<path d="M1019 2183 c-1 -5 -1 -12 0 -16 1 -5 -3 -6 -9 -2 -6 4 -31 -6 -57
-21 -44 -25 -45 -27 -25 -38 14 -8 18 -16 13 -25 -6 -9 -11 -10 -15 -2 -4 6
-4 11 1 11 4 0 0 5 -10 11 -24 14 -177 -68 -156 -83 11 -7 9 -8 -4 -4 -21 7
-300 -151 -291 -165 3 -5 -3 -6 -12 -2 -13 5 -15 3 -9 -7 5 -9 4 -11 -3 -6
-11 7 -205 -98 -245 -132 -16 -14 -17 -49 -15 -515 l3 -501 55 -32 c30 -18 62
-31 70 -28 8 3 11 2 7 -2 -9 -9 2 -17 148 -101 229 -133 234 -136 253 -121 15
11 15 11 4 -3 -11 -14 5 -26 128 -98 77 -46 144 -80 150 -76 6 4 9 1 8 -7 -2
-7 5 -12 14 -12 10 1 15 -2 12 -7 -3 -5 2 -9 11 -9 17 0 291 153 310 172 7 7
6 9 -1 5 -6 -3 -11 0 -11 8 0 11 4 12 13 4 12 -10 26 -5 89 33 69 43 118 71
175 102 36 20 64 40 62 46 -1 7 2 9 7 6 12 -8 192 94 186 105 -4 5 0 6 8 3 36
-13 37 12 35 526 l-3 502 -130 75 c-71 41 -155 88 -185 105 -30 17 -65 38 -77
45 -12 8 -28 11 -34 7 -7 -4 -9 -3 -6 3 4 6 -29 31 -75 58 -64 37 -83 44 -90
33 -8 -10 -9 -9 -4 4 3 12 -2 22 -17 29 -19 10 -20 10 -12 -2 7 -11 6 -10 -5
1 -31 32 -206 130 -233 130 -15 0 -28 -3 -28 -7z m109 -113 c-4 -14 101 -72
114 -64 6 4 8 2 5 -4 -9 -13 79 -65 95 -56 6 4 8 3 5 -2 -3 -5 64 -50 149 -99
85 -50 150 -91 145 -93 -9 -3 -496 65 -523 74 -15 4 -18 18 -19 82 0 42 -2 94
-3 115 -1 26 4 41 14 47 19 12 20 12 18 0z m-120 -124 l-3 -121 -180 -25 c-99
-13 -181 -28 -183 -32 -2 -4 -9 -5 -17 -2 -7 3 -48 0 -90 -6 -74 -11 -109 -8
-69 6 10 4 38 18 62 32 31 18 40 28 32 36 -7 9 -5 13 5 13 8 0 12 -4 9 -9 -9
-15 6 -8 89 38 143 81 150 86 135 96 -10 7 -8 8 5 4 18 -6 170 72 163 83 -2 3
7 7 20 7 l25 2 -3 -122z m144 -205 c2 -5 152 -30 333 -56 182 -26 334 -51 339
-56 6 -6 6 -9 -1 -9 -7 0 -15 -10 -19 -22 -3 -13 -15 -41 -25 -63 -40 -89
-164 -411 -163 -422 1 -7 -2 -13 -6 -13 -5 0 -16 -23 -25 -51 -13 -39 -15 -53
-5 -59 9 -5 8 -9 -2 -13 -10 -3 -26 18 -53 71 -35 71 -39 75 -46 52 -8 -24 -8
-23 -5 4 3 22 -20 70 -96 205 -56 97 -106 181 -112 186 -6 6 -12 16 -14 24 -2
7 -27 55 -55 105 -60 102 -70 126 -58 126 5 0 11 -4 13 -9z m-192 -17 c0 -3
-16 -34 -35 -68 -19 -35 -32 -66 -27 -71 4 -5 2 -5 -4 -2 -13 8 -37 -40 -28
-55 4 -6 2 -8 -4 -5 -13 9 -86 -119 -76 -135 4 -6 3 -8 -4 -5 -10 7 -75 -97
-75 -120 0 -7 -4 -13 -8 -13 -4 0 -38 -53 -74 -117 -76 -135 -82 -143 -91
-120 -10 27 -21 20 -19 -13 1 -16 -2 -27 -7 -24 -4 3 -8 0 -8 -5 0 -6 -5 -11
-11 -11 -8 0 -8 4 1 15 6 8 9 19 5 25 -4 6 0 19 9 29 15 17 13 27 -36 149 -29
72 -55 129 -59 126 -4 -2 -7 2 -6 9 1 34 -4 48 -15 41 -6 -4 -8 -3 -5 3 10 16
-13 74 -26 66 -6 -3 -7 -1 -3 6 4 6 -9 54 -30 107 -20 52 -35 97 -32 99 5 5
602 93 641 94 15 1 27 -2 27 -5z m130 -84 c17 -33 33 -60 36 -60 3 0 2 5 -1
10 -10 16 1 11 16 -7 10 -11 10 -14 2 -9 -7 4 -13 4 -13 1 0 -8 70 -128 79
-135 3 -3 7 -10 8 -17 2 -7 21 -42 43 -78 22 -36 40 -67 40 -69 0 -2 19 -36
41 -76 30 -51 45 -68 52 -61 14 14 27 14 27 0 0 -5 -4 -8 -9 -4 -28 16 -17
-25 26 -100 41 -72 51 -83 71 -80 12 2 20 0 17 -5 -3 -5 -195 -9 -441 -10
-239 0 -438 -1 -442 -1 -29 -5 -30 5 -4 53 15 29 33 58 40 66 23 25 43 72 36
84 -4 7 -3 8 5 4 6 -4 14 0 19 11 4 10 26 51 50 91 123 210 123 211 112 232
-14 26 -24 25 -44 -2 -15 -21 -16 -21 -7 -2 6 12 7 25 3 29 -4 5 -2 5 5 2 6
-4 18 0 26 8 19 19 23 19 31 -1 3 -8 2 -12 -4 -9 -12 7 -13 -5 -1 -23 5 -9 27
21 69 93 34 59 62 111 62 116 0 26 23 2 50 -51z m-689 -523 c44 -109 77 -202
74 -207 -3 -4 -31 -23 -63 -40 -31 -18 -76 -44 -99 -57 l-43 -25 0 324 1 323
25 -60 c14 -33 61 -149 105 -258z m1435 -325 c-3 -2 -32 12 -64 32 -38 23 -67
34 -78 30 -15 -4 -16 -4 -5 4 11 8 10 12 -8 21 -12 7 -32 10 -44 7 -12 -3 -16
-3 -9 0 9 4 10 9 2 19 -8 10 -7 22 5 45 9 18 14 38 11 46 -3 8 -2 13 2 10 5
-3 39 72 77 167 37 95 78 192 89 217 l21 45 3 -319 c1 -175 0 -321 -2 -324z
m-261 59 c-6 -11 73 -53 85 -46 6 4 9 1 8 -5 -2 -7 25 -28 59 -47 42 -23 60
-39 56 -49 -3 -8 -10 -14 -16 -14 -21 0 -207 -111 -202 -121 4 -5 -2 -6 -11
-2 -13 5 -15 3 -9 -7 5 -9 4 -11 -3 -6 -6 4 -28 -4 -49 -17 -21 -13 -47 -27
-58 -31 -16 -6 -17 -9 -5 -17 12 -8 10 -9 -7 -4 -15 4 -29 -1 -42 -14 -12 -12
-21 -19 -21 -16 0 8 -61 -24 -82 -42 -10 -9 -32 -17 -50 -19 -23 -3 -29 -1
-18 5 8 6 18 7 22 5 13 -8 9 10 -4 26 -11 12 -10 12 3 2 13 -10 19 -9 28 1 6
8 7 18 3 22 -4 5 -2 5 4 2 7 -4 23 8 38 27 28 37 33 52 14 40 -7 -4 -8 -3 -4
5 4 6 11 9 16 6 4 -3 27 21 51 53 24 31 52 66 62 76 17 20 24 41 9 32 -11 -7
-9 40 2 51 5 4 6 3 3 -4 -4 -6 -4 -19 -1 -28 6 -14 9 -13 30 6 28 26 33 48 7
28 -16 -13 -17 -12 -5 3 8 10 19 16 25 15 7 -1 11 9 10 23 -1 14 1 19 4 12 4
-10 9 -9 24 4 18 17 27 40 11 30 -4 -2 -8 4 -8 14 0 10 6 16 13 13 7 -3 11 -8
8 -12z m-1015 -24 c0 -7 -4 -6 -10 3 -7 11 -10 11 -10 2 0 -7 14 -31 32 -52
26 -34 34 -38 47 -27 14 11 14 10 2 -6 -12 -15 -11 -20 4 -37 17 -18 41 -19
30 0 -3 4 2 7 10 6 16 -2 21 -21 6 -21 -25 0 -17 -20 39 -91 34 -44 79 -103
101 -131 22 -29 44 -52 50 -50 6 1 13 -5 14 -14 2 -12 -4 -16 -20 -15 -13 0
-22 3 -20 6 2 3 -112 73 -253 155 -141 82 -259 151 -262 153 -3 2 3 9 13 16
48 29 53 35 37 46 -9 6 -10 10 -3 10 6 0 15 -5 18 -10 4 -6 11 -8 16 -4 5 3 6
10 3 16 -4 7 -2 8 5 4 6 -4 26 2 44 13 81 50 107 57 107 28z m896 -9 c-15 -18
-30 -37 -34 -43 -4 -5 -26 -33 -49 -61 -43 -51 -54 -72 -31 -58 7 4 8 3 4 -5
-4 -6 -11 -9 -16 -6 -13 8 -31 -21 -24 -41 4 -14 3 -16 -4 -5 -8 10 -22 -3
-63 -59 -30 -39 -53 -76 -51 -82 1 -5 -1 -7 -6 -4 -5 3 -34 -29 -66 -70 -31
-40 -60 -74 -64 -74 -4 0 -32 32 -62 71 -137 177 -193 244 -202 241 -5 -1 -7
2 -4 7 8 12 -63 103 -75 96 -5 -3 -7 0 -4 7 2 7 -5 24 -16 37 -15 18 -23 21
-31 13 -14 -14 -32 -16 -24 -3 4 5 0 12 -6 15 -7 4 -3 4 10 2 28 -5 28 2 0 31
l-21 23 432 0 433 0 -26 -32z"/>
</g>
</svg>
